<svg xmlns="http://www.w3.org/2000/svg" viewBox="0 0 640 360">
  <rect width="640" height="360" fill="#101722"/>
  <g stroke="#223042" stroke-width="1">
    <path d="M0 60H640M0 120H640M0 180H640M0 240H640M0 300H640M80 0V360M160 0V360M240 0V360M320 0V360M400 0V360M480 0V360M560 0V360"/>
  </g>
  <!-- gear -->
  <g transform="translate(320 175)" fill="none" stroke="#ffb43a" stroke-width="3">
    <circle r="34"/>
    <circle r="14" stroke="#3ecfe0"/>
    <g>
      <line x1="0" y1="-46" x2="0" y2="-58"/>
      <line x1="0" y1="46" x2="0" y2="58"/>
      <line x1="-46" y1="0" x2="-58" y2="0"/>
      <line x1="46" y1="0" x2="58" y2="0"/>
      <line x1="-33" y1="-33" x2="-41" y2="-41"/>
      <line x1="33" y1="33" x2="41" y2="41"/>
      <line x1="-33" y1="33" x2="-41" y2="41"/>
      <line x1="33" y1="-33" x2="41" y2="-41"/>
    </g>
  </g>
  <text x="320" y="330" text-anchor="middle" font-family="monospace" font-size="18" letter-spacing="6" fill="#8296ab">UTILITY MOD</text>
</svg>
