<svg xmlns="http://www.w3.org/2000/svg" viewBox="0 0 640 360">
  <rect width="640" height="360" fill="#101722"/>
  <g stroke="#223042" stroke-width="1">
    <path d="M0 60H640M0 120H640M0 180H640M0 240H640M0 300H640M80 0V360M160 0V360M240 0V360M320 0V360M400 0V360M480 0V360M560 0V360"/>
  </g>
  <!-- coastline -->
  <path d="M120 300 C180 250 160 210 220 190 C280 170 300 120 380 110 C450 100 480 60 560 70"
        fill="none" stroke="#3ecfe0" stroke-width="3" opacity="0.8"/>
  <path d="M120 300 C180 250 160 210 220 190 C280 170 300 120 380 110 C450 100 480 60 560 70 L560 300 Z"
        fill="#3ecfe0" opacity="0.08"/>
  <g fill="#ffb43a">
    <circle cx="250" cy="220" r="6"/>
    <circle cx="410" cy="130" r="6"/>
  </g>
  <path d="M250 220 L410 130" stroke="#ffb43a" stroke-width="2" stroke-dasharray="8 6"/>
  <text x="320" y="330" text-anchor="middle" font-family="monospace" font-size="18" letter-spacing="6" fill="#8296ab">MAP / TERRAIN</text>
</svg>
