<svg xmlns="http://www.w3.org/2000/svg" viewBox="0 0 640 360">
  <rect width="640" height="360" fill="#101722"/>
  <g stroke="#223042" stroke-width="1">
    <path d="M0 60H640M0 120H640M0 180H640M0 240H640M0 300H640M80 0V360M160 0V360M240 0V360M320 0V360M400 0V360M480 0V360M560 0V360"/>
  </g>
  <!-- waypoint route -->
  <path d="M110 280 L240 200 L360 240 L470 110" fill="none" stroke="#ffb43a" stroke-width="2.5" stroke-dasharray="10 7"/>
  <g fill="none" stroke="#3ecfe0" stroke-width="2.5">
    <circle cx="110" cy="280" r="10"/>
    <circle cx="240" cy="200" r="10"/>
    <circle cx="360" cy="240" r="10"/>
  </g>
  <g transform="translate(470 110)" stroke="#ffb43a" stroke-width="2.5" fill="none">
    <circle r="12"/>
    <line x1="-20" y1="0" x2="20" y2="0"/>
    <line x1="0" y1="-20" x2="0" y2="20"/>
  </g>
  <text x="320" y="330" text-anchor="middle" font-family="monospace" font-size="18" letter-spacing="6" fill="#8296ab">MISSION / CAMPAIGN</text>
</svg>
